<svg xmlns="http://www.w3.org/2000/svg" xmlns:xlink="http://www.w3.org/1999/xlink" version="1.1" width="256" height="256" viewBox="0 0 256 256" xml:space="preserve">
<g style="stroke: none; stroke-width: 0; stroke-dasharray: none; stroke-linecap: butt; stroke-linejoin: miter; stroke-miterlimit: 10; fill: none; fill-rule: nonzero; opacity: 1;" transform="translate(1.4065934065934016 1.4065934065934016) scale(2.81 2.81)">
	<path d="M 59.235 39.825 c -1.56 0 -3.105 1.425 -3.27 3.465 v -3.3 h -2.25 v 9.96 h 2.28 v -4.815 c 0 -1.35 0.96 -3.255 3.255 -3.255 v -2.055 H 59.235 z M 83.13 48.36 v -6.825 h 1.32 c 1.755 0 3.195 1.095 3.195 3.36 c 0 2.25 -1.425 3.465 -3.195 3.465 H 83.13 z M 80.865 49.95 h 3.855 c 2.37 0 5.28 -1.545 5.28 -5.055 c 0 -3.465 -2.91 -4.89 -5.28 -4.89 h -3.855 V 49.95 z M 72.24 45 c 0 -1.815 0.93 -3.3 2.475 -3.3 c 1.485 0 2.31 1.485 2.31 3.3 s -0.825 3.3 -2.31 3.3 C 73.185 48.3 72.24 46.815 72.24 45 z M 69.93 45.105 c 0 2.97 1.545 5.055 3.96 5.055 c 1.755 0 2.805 -1.155 3.36 -3.03 v 2.82 h 2.25 v -9.96 h -2.25 v 2.64 c -0.495 -1.755 -1.545 -2.805 -3.195 -2.805 C 71.58 39.84 69.93 42.09 69.93 45.105 z M 18.585 50.175 c -2.805 0 -4.455 -2.25 -4.455 -5.055 c 0 -2.91 1.815 -5.28 5.28 -5.28 c 3.57 0 4.785 2.415 4.845 3.795 h -2.58 c -0.06 -0.765 -0.72 -1.92 -2.31 -1.92 c -1.71 0 -2.805 1.485 -2.805 3.3 c 0 1.815 1.095 3.3 2.805 3.3 c 1.545 0 2.205 -1.215 2.475 -2.415 h -2.475 v -0.99 h 5.19 v 5.04 h -2.28 v -3.195 C 22.11 47.91 21.39 50.175 18.585 50.175 z M 29.175 50.175 c -2.145 0 -3.465 -1.425 -3.465 -4.29 v -5.88 h 2.31 v 5.88 c 0 1.485 0.72 2.205 1.92 2.205 c 2.37 0 3.24 -2.91 3.24 -4.95 v -3.135 h 2.31 v 9.945 h -2.25 v -3.69 C 32.805 48.3 31.59 50.175 29.175 50.175 z M 49.305 39.825 c -1.965 0 -3.21 1.905 -3.615 3.66 c -0.075 -2.355 -1.23 -3.66 -3.09 -3.66 c -1.605 0 -3.09 1.425 -3.48 3.69 V 39.99 h -2.25 v 9.96 h 2.28 v -3.57 c 0 -0.885 0.375 -4.515 2.67 -4.515 c 1.485 0 1.635 1.335 1.635 3.18 v 4.905 h 2.28 v -3.57 c 0 -0.885 0.39 -4.515 2.685 -4.515 c 1.485 0 1.635 1.335 1.635 3.18 v 4.905 h 2.28 v -5.895 C 52.35 41.235 51.345 39.825 49.305 39.825 z M 64.125 39.825 c -2.955 0 -4.95 2.31 -4.95 5.175 c 0 3.15 1.905 5.175 4.95 5.175 c 2.955 0 4.995 -2.31 4.995 -5.175 C 69.105 41.85 67.17 39.825 64.125 39.825 z M 64.125 48.405 c -1.725 0 -2.835 -1.455 -2.835 -3.405 s 1.11 -3.405 2.835 -3.405 c 1.71 0 2.79 1.455 2.79 3.405 S 65.835 48.405 64.125 48.405 z" style="stroke: none; stroke-width: 1; stroke-dasharray: none; stroke-linecap: butt; stroke-linejoin: miter; stroke-miterlimit: 10; fill: rgb(0,0,0); fill-rule: nonzero; opacity: 1;" transform=" matrix(1 0 0 1 0 0) " stroke-linecap="round"/>
	<circle cx="5.52" cy="45" r="5.52" style="stroke: none; stroke-width: 1; stroke-dasharray: none; stroke-linecap: butt; stroke-linejoin: miter; stroke-miterlimit: 10; fill: rgb(255,144,232); fill-rule: nonzero; opacity: 1;" transform="  matrix(1 0 0 1 0 0) "/>
	<path d="M 5.04 47.775 c -1.62 0 -2.565 -1.29 -2.565 -2.91 c 0 -1.68 1.05 -3.03 3.045 -3.03 c 2.055 0 2.76 1.395 2.79 2.175 H 6.825 C 6.795 43.56 6.42 42.9 5.49 42.9 c -0.975 0 -1.62 0.855 -1.62 1.89 c 0 1.05 0.63 1.89 1.62 1.89 c 0.885 0 1.275 -0.69 1.425 -1.395 h -1.44 v -0.57 h 3 v 2.91 h -1.32 v -1.83 C 7.065 46.485 6.66 47.775 5.04 47.775 z" style="stroke: none; stroke-width: 1; stroke-dasharray: none; stroke-linecap: butt; stroke-linejoin: miter; stroke-miterlimit: 10; fill: rgb(0,0,0); fill-rule: nonzero; opacity: 1;" transform=" matrix(1 0 0 1 0 0) " stroke-linecap="round"/>
</g>
</svg>